<svg width="26" height="21" viewBox="0 0 26 21" fill="none" xmlns="http://www.w3.org/2000/svg">
<path d="M24.2824 0H2.3407C1.90982 0.000560118 1.49674 0.17067 1.19206 0.473027C0.887376 0.775384 0.715957 1.18531 0.715393 1.6129V15.3226C0.715957 15.7502 0.887376 16.1601 1.19206 16.4625C1.49674 16.7648 1.90982 16.9349 2.3407 16.9355H10.7161L10.1742 18.5484H8.84194C8.73418 18.5484 8.63083 18.5909 8.55463 18.6665C8.47843 18.7421 8.43562 18.8447 8.43562 18.9516V19.7581H4.77867C4.6709 19.7581 4.56755 19.8005 4.49135 19.8762C4.41515 19.9518 4.37234 20.0543 4.37234 20.1613C4.37234 20.2682 4.41515 20.3708 4.49135 20.4464C4.56755 20.522 4.6709 20.5645 4.77867 20.5645H22.6571C22.7648 20.5645 22.8682 20.522 22.9444 20.4464C23.0206 20.3708 23.0634 20.2682 23.0634 20.1613C23.0634 20.0543 23.0206 19.9518 22.9444 19.8762C22.8682 19.8005 22.7648 19.7581 22.6571 19.7581H18.1875V18.9516C18.1875 18.8447 18.1447 18.7421 18.0685 18.6665C17.9923 18.5909 17.8889 18.5484 17.7811 18.5484H16.4489L15.907 16.9355H24.2824C24.7133 16.9349 25.1264 16.7648 25.431 16.4625C25.7357 16.1601 25.9071 15.7502 25.9077 15.3226V1.6129C25.9071 1.18531 25.7357 0.775384 25.431 0.473027C25.1264 0.17067 24.7133 0.000560118 24.2824 0ZM17.3748 19.3548V19.7581H9.24827V19.3548H17.3748ZM11.031 18.5484L11.573 16.9355H15.0501L15.5921 18.5484H11.031ZM25.095 15.3226C25.0948 15.5364 25.0091 15.7413 24.8567 15.8925C24.7044 16.0437 24.4978 16.1288 24.2824 16.129H2.3407C2.12526 16.1288 1.91872 16.0437 1.76638 15.8925C1.61404 15.7413 1.52833 15.5364 1.52805 15.3226V14.5161H25.095V15.3226ZM7.60569 10.0806L7.45332 13.7097H6.97995L6.82757 10.0806H7.60569ZM6.88345 9.27419L7.15467 7.66129H7.2786L7.54982 9.27419H6.88345ZM7.21663 6.85484C6.77628 6.85484 6.40398 6.30091 6.40398 5.64516C6.40398 5.23135 6.82961 4.63004 7.21562 4.20615C7.56354 4.58921 8.02929 5.20161 8.02929 5.64516C8.02929 6.30091 7.65699 6.85484 7.21663 6.85484ZM11.6385 6.04839L11.6862 6.14365V6.45161H10.0609V6.14365L10.1087 6.04839H11.6385ZM10.515 5.24194L10.8736 4.53075L11.2322 5.24194H10.515ZM11.6862 7.25806V13.6593C11.6864 13.6761 11.6876 13.693 11.6898 13.7097H10.0574C10.0596 13.693 10.0608 13.6761 10.0609 13.6593V7.25806H11.6862ZM15.3432 5.64516H16.5622V6.45161H16.1558C16.0481 6.45161 15.9447 6.4941 15.8685 6.56971C15.7923 6.64533 15.7495 6.7479 15.7495 6.85484C15.7495 6.96178 15.7923 7.06434 15.8685 7.13996C15.9447 7.21558 16.0481 7.25806 16.1558 7.25806H16.5622V8.06452H15.3432C15.2354 8.06452 15.1321 8.107 15.0559 8.18262C14.9797 8.25824 14.9369 8.3608 14.9369 8.46774C14.9369 8.57468 14.9797 8.67725 15.0559 8.75287C15.1321 8.82849 15.2354 8.87097 15.3432 8.87097H16.5622V9.67742H16.1558C16.0481 9.67742 15.9447 9.7199 15.8685 9.79552C15.7923 9.87114 15.7495 9.9737 15.7495 10.0806C15.7495 10.1876 15.7923 10.2901 15.8685 10.3658C15.9447 10.4414 16.0481 10.4839 16.1558 10.4839H16.5622V11.2903H15.3432C15.2354 11.2903 15.1321 11.3328 15.0559 11.4084C14.9797 11.484 14.9369 11.5866 14.9369 11.6935C14.9369 11.8005 14.9797 11.9031 15.0559 11.9787C15.1321 12.0543 15.2354 12.0968 15.3432 12.0968H16.5622V13.7097H13.7179V4.03226H16.5622V4.83871H15.3432C15.2354 4.83871 15.1321 4.88119 15.0559 4.95681C14.9797 5.03243 14.9369 5.13499 14.9369 5.24194C14.9369 5.34888 14.9797 5.45144 15.0559 5.52706C15.1321 5.60268 15.2354 5.64516 15.3432 5.64516ZM20.2191 10.4839V13.6593C20.2193 13.6761 20.2205 13.693 20.2227 13.7097H18.5902C18.5925 13.693 18.5936 13.6761 18.5938 13.6593V10.4839H20.2191ZM18.5938 9.67742V9.36946L19.4065 7.75655L20.2191 9.36946V9.67742H18.5938ZM25.095 13.7097H21.0282C21.0304 13.693 21.0316 13.6761 21.0318 13.6593V9.27419C21.0317 9.21159 21.0171 9.14984 20.9891 9.09375L19.7701 6.6744C19.7363 6.60743 19.6844 6.55113 19.6202 6.51178C19.5559 6.47243 19.4819 6.4516 19.4065 6.4516C19.331 6.4516 19.257 6.47243 19.1928 6.51178C19.1285 6.55113 19.0766 6.60743 19.0428 6.6744L17.8238 9.09375C17.7958 9.14984 17.7812 9.21159 17.7811 9.27419V13.6593C17.7813 13.6761 17.7825 13.693 17.7847 13.7097H17.3748V3.62903C17.3748 3.52209 17.332 3.41953 17.2558 3.34391C17.1796 3.26829 17.0763 3.22581 16.9685 3.22581H13.3115C13.2038 3.22581 13.1004 3.26829 13.0242 3.34391C12.948 3.41953 12.9052 3.52209 12.9052 3.62903V13.7097H12.4953C12.4975 13.693 12.4987 13.6761 12.4989 13.6593V6.04839C12.4988 5.98578 12.4842 5.92404 12.4562 5.86794L11.2372 3.44859C11.2034 3.38163 11.1515 3.32532 11.0873 3.28598C11.023 3.24663 10.9491 3.22579 10.8736 3.22579C10.7981 3.22579 10.7241 3.24663 10.6599 3.28598C10.5957 3.32532 10.5437 3.38163 10.5099 3.44859L9.29094 5.86794C9.26293 5.92404 9.24833 5.98578 9.24827 6.04839V13.6593C9.24843 13.6761 9.24961 13.693 9.25183 13.7097H8.26648L8.43511 9.69405C8.43562 9.68498 8.43511 9.67591 8.43511 9.66633V9.65423C8.43417 9.64004 8.43247 9.62591 8.43003 9.6119V9.61089L8.05418 7.37248C8.52602 7.01915 8.84194 6.37702 8.84194 5.64516C8.84194 4.60887 7.6316 3.46119 7.49344 3.33367C7.41816 3.26442 7.31929 3.22594 7.21663 3.22594C7.11398 3.22594 7.01511 3.26442 6.93982 3.33367C6.80167 3.46119 5.59132 4.60887 5.59132 5.64516C5.59132 6.37702 5.90724 7.01915 6.37909 7.37248L6.00324 9.61089V9.6119C6.0008 9.62591 5.9991 9.64004 5.99816 9.65423V9.66633C5.99816 9.67591 5.99765 9.68498 5.99816 9.69405L6.16679 13.7097H1.52805V1.6129C1.52833 1.3991 1.61404 1.19414 1.76638 1.04297C1.91872 0.891787 2.12526 0.806732 2.3407 0.806452H24.2824C24.4978 0.806732 24.7044 0.891787 24.8567 1.04297C25.0091 1.19414 25.0948 1.3991 25.095 1.6129V13.7097Z" fill="black"/>
<path d="M5.18499 14.9193H2.74703C2.63926 14.9193 2.53591 14.9618 2.45971 15.0374C2.38351 15.113 2.3407 15.2156 2.3407 15.3225C2.3407 15.4295 2.38351 15.532 2.45971 15.6077C2.53591 15.6833 2.63926 15.7258 2.74703 15.7258H5.18499C5.29276 15.7258 5.39611 15.6833 5.47231 15.6077C5.54851 15.532 5.59132 15.4295 5.59132 15.3225C5.59132 15.2156 5.54851 15.113 5.47231 15.0374C5.39611 14.9618 5.29276 14.9193 5.18499 14.9193Z" fill="black"/>
<path d="M6.81034 14.9193H6.40401C6.29624 14.9193 6.19289 14.9618 6.11669 15.0374C6.04049 15.113 5.99768 15.2156 5.99768 15.3225C5.99768 15.4295 6.04049 15.532 6.11669 15.6077C6.19289 15.6833 6.29624 15.7258 6.40401 15.7258H6.81034C6.9181 15.7258 7.02145 15.6833 7.09765 15.6077C7.17385 15.532 7.21666 15.4295 7.21666 15.3225C7.21666 15.2156 7.17385 15.113 7.09765 15.0374C7.02145 14.9618 6.9181 14.9193 6.81034 14.9193Z" fill="black"/>
<path d="M10.8736 7.66125C10.7658 7.66125 10.6625 7.70374 10.5863 7.77936C10.5101 7.85498 10.4673 7.95754 10.4673 8.06448V12.5C10.4673 12.6069 10.5101 12.7095 10.5863 12.7851C10.6625 12.8607 10.7658 12.9032 10.8736 12.9032C10.9814 12.9032 11.0847 12.8607 11.1609 12.7851C11.2371 12.7095 11.2799 12.6069 11.2799 12.5V8.06448C11.2799 7.95754 11.2371 7.85498 11.1609 7.77936C11.0847 7.70374 10.9814 7.66125 10.8736 7.66125Z" fill="black"/>
<path d="M19.4064 10.8871C19.2987 10.8871 19.1953 10.9296 19.1191 11.0052C19.0429 11.0808 19.0001 11.1834 19.0001 11.2903V12.5C19.0001 12.6069 19.0429 12.7095 19.1191 12.7851C19.1953 12.8607 19.2987 12.9032 19.4064 12.9032C19.5142 12.9032 19.6176 12.8607 19.6938 12.7851C19.77 12.7095 19.8128 12.6069 19.8128 12.5V11.2903C19.8128 11.1834 19.77 11.0808 19.6938 11.0052C19.6176 10.9296 19.5142 10.8871 19.4064 10.8871Z" fill="black"/>
<path d="M2.74703 2.41937H5.99765C6.10541 2.41937 6.20876 2.37688 6.28496 2.30126C6.36116 2.22564 6.40397 2.12308 6.40397 2.01614C6.40397 1.9092 6.36116 1.80664 6.28496 1.73102C6.20876 1.6554 6.10541 1.61292 5.99765 1.61292H2.74703C2.63926 1.61292 2.53591 1.6554 2.45971 1.73102C2.38351 1.80664 2.3407 1.9092 2.3407 2.01614C2.3407 2.12308 2.38351 2.22564 2.45971 2.30126C2.53591 2.37688 2.63926 2.41937 2.74703 2.41937Z" fill="black"/>
<path d="M2.74703 3.62908H3.55968C3.66745 3.62908 3.7708 3.5866 3.847 3.51098C3.9232 3.43536 3.96601 3.3328 3.96601 3.22586C3.96601 3.11892 3.9232 3.01635 3.847 2.94073C3.7708 2.86511 3.66745 2.82263 3.55968 2.82263H2.74703C2.63926 2.82263 2.53591 2.86511 2.45971 2.94073C2.38351 3.01635 2.3407 3.11892 2.3407 3.22586C2.3407 3.3328 2.38351 3.43536 2.45971 3.51098C2.53591 3.5866 2.63926 3.62908 2.74703 3.62908Z" fill="black"/>
<path d="M22.2507 12.9033H23.876C23.9838 12.9033 24.0871 12.8608 24.1633 12.7852C24.2395 12.7095 24.2823 12.607 24.2823 12.5C24.2823 12.3931 24.2395 12.2905 24.1633 12.2149C24.0871 12.1393 23.9838 12.0968 23.876 12.0968H22.2507C22.1429 12.0968 22.0396 12.1393 21.9634 12.2149C21.8872 12.2905 21.8444 12.3931 21.8444 12.5C21.8444 12.607 21.8872 12.7095 21.9634 12.7852C22.0396 12.8608 22.1429 12.9033 22.2507 12.9033Z" fill="black"/>
<path d="M23.4697 11.6935H23.8761C23.9838 11.6935 24.0872 11.6511 24.1634 11.5754C24.2396 11.4998 24.2824 11.3973 24.2824 11.2903C24.2824 11.1834 24.2396 11.0808 24.1634 11.0052C24.0872 10.9296 23.9838 10.8871 23.8761 10.8871H23.4697C23.362 10.8871 23.2586 10.9296 23.1824 11.0052C23.1062 11.0808 23.0634 11.1834 23.0634 11.2903C23.0634 11.3973 23.1062 11.4998 23.1824 11.5754C23.2586 11.6511 23.362 11.6935 23.4697 11.6935Z" fill="black"/>
</svg>
