<svg width="26" height="24" viewBox="0 0 26 24" fill="none" xmlns="http://www.w3.org/2000/svg">
<path d="M0.730774 0V20.5205H8.81652V21.9877H7.33864V23.4526H19.3152V21.9877H17.8373V20.5205H25.9231V0H0.730774ZM16.3611 21.9877H10.2927V20.5205H16.3611V21.9877H16.3611ZM24.4469 19.0556H2.20693V16.1222H24.4469V19.0556H24.4469ZM24.4469 14.6573H2.20693V1.46494H24.4469V14.6573H24.4469Z" fill="black"/>
<path d="M10.7655 5.4134L9.72171 4.37756L6.00983 8.06111L9.72171 11.7446L10.7655 10.7088L8.09744 8.06111L10.7655 5.4134Z" fill="black"/>
<path d="M16.9322 4.37756L15.8884 5.4134L18.5564 8.06111L15.8884 10.7088L16.9322 11.7446L20.644 8.06111L16.9322 4.37756Z" fill="black"/>
<path d="M13.4599 3.64405L11.7462 12.1931L13.1941 12.4789L14.9077 3.92986L13.4599 3.64405Z" fill="black"/>
</svg>
